<?xml version="1.0" encoding="UTF-8" standalone="no"?>
<!-- Created with Inkscape (http://www.inkscape.org/) -->

<svg
   xmlns:dc="http://purl.org/dc/elements/1.1/"
   xmlns:cc="http://creativecommons.org/ns#"
   xmlns:rdf="http://www.w3.org/1999/02/22-rdf-syntax-ns#"
   xmlns:svg="http://www.w3.org/2000/svg"
   xmlns="http://www.w3.org/2000/svg"
   xmlns:sodipodi="http://sodipodi.sourceforge.net/DTD/sodipodi-0.dtd"
   xmlns:inkscape="http://www.inkscape.org/namespaces/inkscape"
   width="64"
   height="64"
   viewBox="0 0 16.933333 16.933333"
   version="1.1"
   id="svg8"
   inkscape:version="0.92.3 (2405546, 2018-03-11)"
   sodipodi:docname="24-Delivered.svg">
  <defs
     id="defs2" />
  <sodipodi:namedview
     id="base"
     pagecolor="#ffffff"
     bordercolor="#666666"
     borderopacity="1.0"
     inkscape:pageopacity="0.0"
     inkscape:pageshadow="2"
     inkscape:zoom="5.656854"
     inkscape:cx="39.994146"
     inkscape:cy="36.746064"
     inkscape:document-units="px"
     inkscape:current-layer="layer2"
     showgrid="false"
     inkscape:snap-smooth-nodes="true"
     inkscape:snap-page="true"
     inkscape:snap-midpoints="false"
     inkscape:snap-intersection-paths="true"
     inkscape:object-paths="true"
     inkscape:object-nodes="true"
     units="px"
     inkscape:snap-bbox="true"
     inkscape:bbox-paths="false"
     inkscape:snap-bbox-midpoints="false"
     inkscape:window-width="1920"
     inkscape:window-height="1040"
     inkscape:window-x="0"
     inkscape:window-y="0"
     inkscape:window-maximized="1"
     inkscape:snap-grids="true"
     inkscape:snap-to-guides="true"
     inkscape:snap-bbox-edge-midpoints="false"
     inkscape:snap-nodes="true"
     inkscape:snap-others="false"
     inkscape:bbox-nodes="true"
     showguides="true"
     inkscape:guide-bbox="true"
     inkscape:measure-start="0,0"
     inkscape:measure-end="0,0"
     inkscape:snap-global="false">
    <inkscape:grid
       type="xygrid"
       id="grid815"
       enabled="true" />
  </sodipodi:namedview>
  <metadata
     id="metadata5">
    <rdf:RDF>
      <cc:Work
         rdf:about="">
        <dc:format>image/svg+xml</dc:format>
        <dc:type
           rdf:resource="http://purl.org/dc/dcmitype/StillImage" />
        <dc:title />
      </cc:Work>
    </rdf:RDF>
  </metadata>
  <g
     inkscape:groupmode="layer"
     id="layer2"
     inkscape:label="24-Delivered">
    <path
       style="opacity:1;fill:#ff9751;fill-opacity:1;stroke:none;stroke-width:0.52916664;stroke-linecap:round;stroke-linejoin:round;stroke-miterlimit:4;stroke-dasharray:none;stroke-dashoffset:0;stroke-opacity:1"
       d="m 1.3229411,0.79376686 h 8.7312499 c 0.293158,0 0.529167,0.23600834 0.529167,0.52916664 V 8.99585 c 0,0.2931583 -0.236009,0.5291667 -0.529167,0.5291667 H 1.3229411 c -0.2931583,0 -0.52916661,-0.2360084 -0.52916661,-0.5291667 V 1.3229335 c 0,-0.2931583 0.23600831,-0.52916664 0.52916661,-0.52916664 z"
       id="rect4372"
       inkscape:connector-curvature="0"
       sodipodi:nodetypes="ccccccccc" />
    <path
       inkscape:connector-curvature="0"
       id="path4374"
       d="m 10.05418,0.79376 v 7.67292 c 0,0.29315 -0.23601,0.52916 -0.52917,0.52916 H 0.79376 c 0,0.29316 0.23601,0.52917 0.52917,0.52917 h 8.73125 c 0.29316,0 0.52916,-0.23601 0.52916,-0.52917 V 1.32293 c 0,-0.29316 -0.236,-0.52917 -0.52916,-0.52917 z"
       style="opacity:1;fill:#ff7f29;fill-opacity:1;stroke:none;stroke-width:0.52916664;stroke-linecap:round;stroke-linejoin:round;stroke-miterlimit:4;stroke-dasharray:none;stroke-dashoffset:0;stroke-opacity:1"
       sodipodi:nodetypes="ccccccccc" />
    <path
       id="path4380"
       d="m 3.26333,10.46293 c 0.17511,-0.0123 0.35576,0.0263 0.51987,0.12144 l 2.6324,1.52601 C 6.371,12.01248 6.3448,11.90482 6.3448,11.7905 c 0,-0.43784 0.36346,-0.79013 0.81494,-0.79013 h 3.80132 l 1.22473,0.52245 h 1.34091 v 3.78064 h -1.26081 c -0.48051,0 -2.16231,0.71727 -3.12333,0.71727 C 7.94884,15.96223 2.87111,12.17084 2.87111,12.17084 2.4335,11.91706 2.28462,11.35931 2.53728,10.91975 2.69519,10.64503 2.97148,10.48343 3.26333,10.46293 Z"
       style="opacity:1;fill:#ffc6a0;fill-opacity:1;stroke:none;stroke-width:0.52916664;stroke-linecap:round;stroke-linejoin:round;stroke-miterlimit:4;stroke-dasharray:none;stroke-dashoffset:0;stroke-opacity:1"
       inkscape:connector-curvature="0"
       sodipodi:nodetypes="cccccccccccccc" />
    <path
       style="opacity:1;fill:#ffaf7a;fill-opacity:1;stroke:none;stroke-width:1.99999988;stroke-linecap:round;stroke-linejoin:round;stroke-miterlimit:4;stroke-dasharray:none;stroke-dashoffset:0;stroke-opacity:1"
       d="M 48.669154,43.59375 V 56 h -4.983607 c -2.03623,0 -9.025873,2.843654 -13.248047,2.988281 1.764328,0.917955 3.230216,1.519033 4.117188,1.5625 3.632201,0 9.988586,-2.710937 11.804687,-2.710937 h 4.636719 V 43.59375 Z"
       transform="scale(0.26458333)"
       id="path4382"
       inkscape:connector-curvature="0"
       sodipodi:nodetypes="ccccccccc" />
    <path
       sodipodi:nodetypes="cccccc"
       inkscape:connector-curvature="0"
       id="path4397"
       d="M 4.49793,0.79375 H 6.87918 V 3.43959 L 5.68856,2.75418 4.49793,3.43959 Z"
       style="opacity:1;fill:#e4eff8;fill-opacity:1;stroke:none;stroke-width:0.52916664;stroke-linecap:round;stroke-linejoin:round;stroke-miterlimit:4;stroke-dasharray:none;stroke-dashoffset:0;stroke-opacity:1" />
    <path
       sodipodi:nodetypes="ccccc"
       inkscape:connector-curvature="0"
       id="path4399"
       d="M 6.35001,0.79376 V 3.13522 L 6.87918,3.43959 V 0.79376 Z"
       style="opacity:1;fill:#c4dcf0;fill-opacity:1;stroke:none;stroke-width:0.52916664;stroke-linecap:round;stroke-linejoin:round;stroke-miterlimit:4;stroke-dasharray:none;stroke-dashoffset:0;stroke-opacity:1" />
    <path
       inkscape:connector-curvature="0"
       id="path4401"
       d="M 5.68855,2.2252 4.49793,2.91043 V 3.43959 L 5.68855,2.75436 6.87918,3.43959 V 2.91043 Z"
       style="opacity:1;fill:#c4dcf0;fill-opacity:1;stroke:none;stroke-width:0.52916664;stroke-linecap:round;stroke-linejoin:round;stroke-miterlimit:4;stroke-dasharray:none;stroke-dashoffset:0;stroke-opacity:1" />
    <path
       style="opacity:1;fill:#e4eff8;fill-opacity:1;stroke:none;stroke-width:0.52916664;stroke-linecap:round;stroke-linejoin:round;stroke-miterlimit:4;stroke-dasharray:none;stroke-dashoffset:0;stroke-opacity:1"
       d="m 12.964596,7.9375048 c 0,1.1690032 -0.947665,2.1166672 -2.116668,2.1166672 -1.1690033,0 -2.1166676,-0.9476642 -2.1166675,-2.1166672 -10e-8,-1.1690029 0.9476643,-2.1166671 2.1166675,-2.1166671 1.169003,-3e-7 2.116668,0.947664 2.116668,2.1166671 z"
       id="ellipse4409"
       inkscape:connector-curvature="0"
       sodipodi:nodetypes="ccccc" />
    <path
       inkscape:connector-curvature="0"
       id="path4419"
       d="M 10.84793,5.82084 A 2.1166675,2.116667 0 0 0 8.73126,7.93751 2.1166675,2.116667 0 0 0 9.64438,9.67849 2.1166675,2.116667 0 0 1 9.26043,8.46668 2.1166675,2.116667 0 0 1 11.37709,6.35001 2.1166675,2.116667 0 0 1 12.58064,6.7257 2.1166675,2.116667 0 0 0 10.84793,5.82084 Z"
       style="opacity:1;fill:#c4dcf0;fill-opacity:1;stroke:none;stroke-width:0.52916664;stroke-linecap:round;stroke-linejoin:round;stroke-miterlimit:4;stroke-dasharray:none;stroke-dashoffset:0;stroke-opacity:1" />
    <path
       sodipodi:nodetypes="ccccccccc"
       inkscape:connector-curvature="0"
       id="path4376"
       d="M 15.65792,10.84793 H 13.9731 c -0.2662,0 -0.48051,0.22341 -0.48051,0.50092 v 4.28982 c 0,0.27751 0.21431,0.50092 0.48051,0.50092 h 1.38208 c 0.2662,0 0.46097,-0.2241 0.48051,-0.50092 l 0.30274,-4.28982 c 0.0195,-0.27683 -0.21431,-0.50092 -0.48051,-0.50092 z"
       style="opacity:1;fill:#549ad4;fill-opacity:1;stroke:none;stroke-width:0.52916664;stroke-linecap:round;stroke-linejoin:round;stroke-miterlimit:4;stroke-dasharray:none;stroke-dashoffset:0;stroke-opacity:1" />
    <path
       style="opacity:1;fill:#3588cb;fill-opacity:1;stroke:none;stroke-width:0.52916664;stroke-linecap:round;stroke-linejoin:round;stroke-miterlimit:4;stroke-dasharray:none;stroke-dashoffset:0;stroke-opacity:1"
       d="m 15.65784,10.84792 c 0.2662,0 0.50012,0.22392 0.48059,0.50075 l -0.30283,4.29017 c -0.0195,0.27683 -0.21439,0.50075 -0.48059,0.50075 h -1.38183 c -0.2662,0 -0.48059,-0.22323 -0.48059,-0.50075 v -0.0284 h 1.33326 c 0.2662,0 0.46105,-0.22392 0.48059,-0.50074 l 0.30075,-4.26176 z"
       id="path4378"
       inkscape:connector-curvature="0" />
    <path
       style="color:#000000;font-style:normal;font-variant:normal;font-weight:normal;font-stretch:normal;font-size:medium;line-height:normal;font-family:sans-serif;font-variant-ligatures:normal;font-variant-position:normal;font-variant-caps:normal;font-variant-numeric:normal;font-variant-alternates:normal;font-feature-settings:normal;text-indent:0;text-align:start;text-decoration:none;text-decoration-line:none;text-decoration-style:solid;text-decoration-color:#000000;letter-spacing:normal;word-spacing:normal;text-transform:none;writing-mode:lr-tb;direction:ltr;text-orientation:mixed;dominant-baseline:auto;baseline-shift:baseline;text-anchor:start;white-space:normal;shape-padding:0;clip-rule:nonzero;display:inline;overflow:visible;visibility:visible;opacity:1;isolation:auto;mix-blend-mode:normal;color-interpolation:sRGB;color-interpolation-filters:linearRGB;solid-color:#000000;solid-opacity:1;vector-effect:none;fill:#000000;fill-opacity:1;fill-rule:nonzero;stroke:none;stroke-width:0.52916664;stroke-linecap:round;stroke-linejoin:miter;stroke-miterlimit:4;stroke-dasharray:none;stroke-dashoffset:0;stroke-opacity:1;color-rendering:auto;image-rendering:auto;shape-rendering:auto;text-rendering:auto;enable-background:accumulate"
       d="m 1.3224467,0.52918602 c -0.43517002,0 -0.79325002,0.35187 -0.79325002,0.79322998 v 7.6739 c 0,0.4444598 0.35808,0.79272 0.79325002,0.79272 h 8.02754 c 0.4088,0.33024 0.9328403,0.52916 1.4976003,0.52916 1.32225,0 2.38129,-1.0687301 2.38129,-2.3807199 0,-0.4242401 -0.11084,-0.8244703 -0.30644,-1.1699502 l 0.49403,-0.4940199 c 0.16753,-0.1679401 0.0464,-0.45984 -0.19586,-0.45217 -0.0686,0.00201 -0.12946,0.0278 -0.17725,0.077 l -0.43564,0.43408 C 12.171857,5.8546258 11.543157,5.5567561 10.847587,5.5567561 V 1.322416 c 0,-0.43516 -0.35136,-0.79322998 -0.79272,-0.79322998 z m 0,0.52967998 h 2.90994 v 2.3807199 c -10e-5,0.2045301 0.22198,0.3318402 0.39843,0.2284101 l 1.05887,-0.60926 1.05835,0.60926 c 0.17611,0.1016299 0.39629,-0.025101 0.39688,-0.2284101 V 1.058866 h 2.9099503 c 0.15115,0 0.26355,0.11963 0.26355,0.26355 v 4.29377 c -1.0662603,0.24385 -1.8516003,1.19152 -1.8516003,2.3212901 0,0.4889298 0.14687,0.9437298 0.40102,1.3223898 h -7.54539 c -0.14496,0 -0.26356,-0.11239 -0.26356,-0.2635499 v -7.6739 c 0,-0.14599 0.1124,-0.26355 0.26356,-0.26355 z m 3.43912,0 h 1.85366 v 1.92339 l -0.7948,-0.45682 c -0.0816,-0.0469 -0.18195,-0.0469 -0.26355,0 l -0.79531,0.45682 z m 6.0860203,5.0270498 c 0.5529,0 1.04629,0.2410701 1.38495,0.6227001 L 10.847587,8.0919858 9.9768267,7.2207259 c -0.25735,-0.2387399 -0.61289,0.1136901 -0.37517,0.3751699 l 1.0588603,1.0583301 c 0.10339,0.1036299 0.27127,0.1036299 0.37466,0 l 1.49347,-1.4929299 c 0.10872,0.23607 0.17054,0.49828 0.17054,0.7761801 0,1.0260099 -0.8297,1.8515599 -1.8516,1.8515599 -1.0260203,0 -1.8510703,-0.8307202 -1.8510703,-1.8515599 0,-1.0198002 0.82505,-1.8515603 1.8510703,-1.8515603 z M 2.1167267,6.6140459 c -0.13249,0 -0.26492,0.0883 -0.26459,0.2651 v 1.32291 c -6.51e-4,0.3535202 0.52982,0.3535202 0.52917,0 v -1.32291 c 3.3e-4,-0.1767599 -0.13209,-0.2651 -0.26458,-0.2651 z m 1.05835,0 c -0.13249,0 -0.26492,0.0883 -0.26459,0.2651 v 1.32291 c -6.59e-4,0.3535202 0.52982,0.3535202 0.52917,0 v -1.32291 c 3.17e-4,-0.1767599 -0.13209,-0.2651 -0.26458,-0.2651 z m 1.05835,0 c -0.13249,0 -0.26492,0.0883 -0.26459,0.2651 v 1.32291 c -6.62e-4,0.3535202 0.52982,0.3535202 0.52917,0 v -1.32291 c 3.17e-4,-0.1767599 -0.13209,-0.2651 -0.26458,-0.2651 z m 1.1436,7.7979011 c 0.71267,0.47978 1.46285,0.96266 2.11722,1.33221 0.65437,0.36955 1.23756,0.64207 1.60148,0.6599 0.005,1.2e-4 0.009,1.2e-4 0.0139,0 0.52773,0 1.2111803,-0.18827 1.8164503,-0.36896 0.30264,-0.0904 0.58836,-0.18054 0.82219,-0.24598 0.23383,-0.0654 0.40201,-0.1018 0.48421,-0.1018 h 1.00099 c 0.0246,0.39902 0.34159,0.71674 0.7395,0.71674 h 1.38289 c 0.4147,0 0.71559,-0.34159 0.744149,-0.7462 l 0.302312,-4.29067 c 0.0306,-0.43469 -0.32946,-0.78341 -0.74415,-0.78341 h -1.6852 c -0.42354,0 -0.74415,0.35211 -0.74415,0.76584 v 0.0274 h -1.02372 l -1.17359,-0.5023 c -0.0327,-0.014 -0.0683,-0.0211 -0.10388,-0.0212 H 7.1252177 c -0.53105,0 -0.97736,0.3777 -1.06093,0.88625 l -2.183361,-1.265032 c -0.21028,-0.12194 -0.44364,-0.17217 -0.67023,-0.15656 -0.07547,0.005 -0.15033,0.01762 -0.22321,0.03722 -0.29153,0.0784 -0.55254,0.269671 -0.71418,0.550871 -0.32544,0.56617 -0.09948,1.261851 0.41832,1.60453 0,0 1.26008,0.94158 2.6854,1.901151 z m -2.131205,-3.566665 c 0.124465,-0.009 0.253635,0.01792 0.371565,0.08632 l 2.57301,1.49292 c 0.18618,0.3213 0.53541,0.54053 0.93484,0.54053 h 2.62469 c 0.3528703,0 0.3528703,-0.52968 0,-0.52968 h -2.62469 c -0.31377,0 -0.54881,-0.2453 -0.54881,-0.52503 0,-0.27972 0.23504,-0.52761 0.54881,-0.52761 h 3.7481503 l 1.17566,0.50178 c 0.0327,0.014 0.0678,0.0216 0.10335,0.0217 h 1.07644 v 3.25198 h -0.99634 c -0.16114,0 -0.38016,0.0519 -0.62684,0.12092 -0.24669,0.069 -0.53193,0.15908 -0.82994,0.24804 -0.59319,0.17708 -1.2164503,0.34572 -1.6583203,0.34572 -0.23787,-0.0133 -0.72954,-0.232919 -1.36118,-0.589629 -0.63349,-0.357761 -1.37602,-0.835171 -2.08207,-1.310511 -1.41211,-0.95066 -2.69162,-1.90324 -2.69162,-1.90324 -0.31066,-0.226269 -0.4275,-0.59066 -0.24986,-0.899703 0.11103,-0.193152 0.30573,-0.309192 0.513155,-0.324507 z m 10.7271653,0.268215 h 1.6852 c 0.11771,0 0.22542,0.0976 0.21704,0.21652 l -0.30283,4.28912 c -0.0115,0.16364 -0.11343,0.2558 -0.21652,0.2558 h -1.38289 c -0.11093,0 -0.21497,-0.0949 -0.21497,-0.23616 v -4.28912 c 0,-0.14129 0.10197,-0.23616 0.21497,-0.23616 z m 0.80462,3.70311 c -0.146128,-10e-7 -0.264589,0.118455 -0.26459,0.26458 1e-6,0.146125 0.118462,0.264581 0.26459,0.26458 0.146124,-4e-6 0.264579,-0.118459 0.26458,-0.26458 -1e-6,-0.146121 -0.118456,-0.264576 -0.26458,-0.26458 z"
       id="path4992"
       inkscape:connector-curvature="0"
       sodipodi:nodetypes="cccccccccccccccccccccccccccccccccccccccccccccccccccccccccccccccccccccccccccccccccccccccccccccccccccccccccccccccccccccccccccccccccccccc" />
  </g>
</svg>
