<svg width="70" height="70" viewBox="0 0 70 70" fill="none" xmlns="http://www.w3.org/2000/svg">
<path d="M52.1969 35.3804C48.9416 35.3804 45.7595 36.3457 43.0528 38.1542C40.3462 39.9627 38.2366 42.5332 36.9909 45.5407C35.7452 48.5481 35.4192 51.8574 36.0543 55.0501C36.6894 58.2428 38.2569 61.1755 40.5587 63.4773C42.8605 65.7791 45.7932 67.3467 48.9859 67.9817C52.1786 68.6168 55.4879 68.2909 58.4954 67.0451C61.5028 65.7994 64.0733 63.6898 65.8819 60.9832C67.6904 58.2766 68.6557 55.0944 68.6557 51.8392C68.656 49.6777 68.2305 47.5373 67.4035 45.5403C66.5765 43.5432 65.3642 41.7287 63.8358 40.2003C62.3073 38.6719 60.4928 37.4595 58.4958 36.6325C56.4987 35.8055 54.3584 35.38 52.1969 35.3804ZM60.5265 48.8551L51.4182 57.9611C51.2115 58.1701 50.9653 58.3361 50.694 58.4493C50.4227 58.5625 50.1316 58.6209 49.8376 58.6209C49.5436 58.6209 49.2525 58.5625 48.9812 58.4493C48.7099 58.3361 48.4637 58.1701 48.257 57.9611L43.8439 53.548C43.6365 53.3442 43.4724 53.1005 43.3614 52.8317C43.2505 52.5629 43.1949 52.2745 43.1981 51.9837C43.1988 51.5421 43.3304 51.1106 43.5764 50.7439C43.8224 50.3771 44.1716 50.0915 44.5799 49.9233C44.9882 49.7551 45.4373 49.7118 45.8702 49.7989C46.3032 49.8859 46.7005 50.0995 47.0121 50.4125L49.8493 53.2496L57.3816 45.7173C57.5888 45.5079 57.8355 45.3417 58.1074 45.2284C58.3793 45.1152 58.671 45.0571 58.9655 45.0575C59.2601 45.058 59.5516 45.1169 59.8232 45.231C60.0947 45.345 60.3409 45.5119 60.5475 45.7219C60.7554 45.9255 60.9201 46.169 61.0315 46.4378C61.1428 46.7066 61.1987 46.9952 61.1956 47.2862C61.2001 47.58 61.1428 47.8714 61.0276 48.1417C60.9123 48.412 60.7416 48.655 60.5265 48.8551V48.8551Z" fill="#1D75B8"/>
<path d="M42.3849 26.4708C42.071 26.3356 41.7316 26.2696 41.3899 26.2773L34.0246 26.6565L28.4487 19.9718C28.3237 19.8226 28.1886 19.6822 28.0444 19.5515C28.0184 19.5299 27.9895 19.5097 27.9621 19.4894C27.6168 19.2341 27.2263 19.0464 26.8111 18.9364C26.7895 18.9306 26.7663 18.9248 26.7447 18.919C26.5683 18.8708 26.3888 18.8346 26.2075 18.8107C24.7547 18.6144 23.2976 18.4425 21.8434 18.2591C21.6049 18.2164 21.359 18.2486 21.1394 18.3512C20.9199 18.4539 20.7376 18.622 20.6174 18.8324C19.9632 19.8404 19.2917 20.8383 18.626 21.839C18.2419 22.4152 17.8548 22.9885 17.4303 23.6225C17.4245 23.6152 17.4216 23.6095 17.4158 23.6022C17.4115 23.6093 17.4067 23.6161 17.4014 23.6225C16.9768 22.9885 16.5898 22.4152 16.2057 21.839C15.5399 20.8382 14.8684 19.8404 14.2143 18.8324C14.0941 18.622 13.9118 18.4539 13.6923 18.3512C13.4727 18.2486 13.2268 18.2164 12.9883 18.2591C12.4655 18.3255 11.9413 18.389 11.4171 18.454C10.4857 18.5696 9.55425 18.6851 8.62424 18.8107C8.30863 18.8519 7.99892 18.93 7.70146 19.0432C7.69584 19.0456 7.69005 19.0475 7.68413 19.049C6.86095 19.329 6.16759 19.8987 5.73315 20.6519C5.65891 20.7785 5.59283 20.9097 5.53531 21.0447L1.68247 30.0848L1.54528 30.4068C1.2944 30.9949 1.27787 31.6567 1.49907 32.2567L1.89331 33.334L5.0111 41.8599C5.22461 42.4367 5.64746 42.9119 6.1955 43.191C6.74353 43.4701 7.37656 43.5326 7.9686 43.3661C8.59005 43.1889 9.11574 42.7722 9.43012 42.2076C9.7445 41.6431 9.82186 40.9767 9.64519 40.3551L8.89859 37.7356L7.21334 31.8148L8.66177 29.5129C8.67043 29.6775 8.67763 29.8378 8.682 29.9981C8.69644 30.5252 8.71232 31.0523 8.72677 31.5794C8.74121 32.0719 8.75421 32.5628 8.7672 33.0553L10.7557 40.0389C10.9291 40.6492 10.9379 41.2946 10.7812 41.9094C10.6244 42.5242 10.3077 43.0866 9.86327 43.5394C9.63175 43.7767 9.36774 43.9799 9.07913 44.143C9.20332 48.6168 9.32751 53.0902 9.4517 57.563C9.49503 59.1298 9.55857 61.5415 9.61488 63.5704C9.64937 64.8244 10.1695 66.0161 11.0655 66.894C11.9615 67.772 13.1635 68.2678 14.4179 68.2767L17.4159 68.2984L20.4138 68.2767C21.6683 68.2678 22.8702 67.772 23.7663 66.894C24.6623 66.0161 25.1824 64.8244 25.2169 63.5704C25.2732 61.5415 25.3367 59.1298 25.3801 57.563C25.6356 48.3757 25.8922 39.1874 26.1497 29.9981C26.1627 29.5403 26.1931 28.6464 26.2277 27.9128C26.2277 27.9128 30.0979 31.7556 31.1651 32.6191C31.3839 32.7981 31.6246 32.9486 31.8813 33.0668C32.0534 33.0875 32.2273 33.0895 32.3998 33.0726L41.6701 31.063C42.2005 31.0122 42.6988 30.7862 43.0865 30.4207C43.4742 30.0552 43.7292 29.571 43.8111 29.0445C43.8931 28.5181 43.7974 27.9793 43.5391 27.5132C43.2809 27.0472 42.8748 26.6804 42.3849 26.4708L42.3849 26.4708Z" fill="#2D3E50"/>
<path d="M12.3798 11.876C12.6069 13.045 13.2336 14.0986 14.1525 14.8561C15.0713 15.6136 16.2251 16.0279 17.4159 16.0279C18.6068 16.0279 19.7605 15.6136 20.6794 14.8561C21.5982 14.0986 22.2249 13.045 22.452 11.876L23.2346 7.83595C23.3387 7.07158 23.2779 6.29378 23.0564 5.55485C22.8348 4.81592 22.4577 4.13297 21.9503 3.5519C21.4429 2.97084 20.817 2.50513 20.1146 2.18608C19.4123 1.86702 18.6498 1.70201 17.8784 1.70215H16.9535C16.1821 1.70201 15.4196 1.86702 14.7172 2.18607C14.0149 2.50512 13.389 2.97083 12.8816 3.55188C12.3741 4.13294 11.997 4.81589 11.7755 5.55481C11.554 6.29374 11.4932 7.07153 11.5973 7.8359L12.3798 11.876Z" fill="#2D3E50"/>
</svg>
